<svg xmlns="http://www.w3.org/2000/svg" viewBox="0 0 32 32" width="32" height="32">
  <defs>
    <linearGradient id="grad" x1="0%" y1="0%" x2="100%" y2="100%">
      <stop offset="0%" stop-color="#3fb950"/>
      <stop offset="50%" stop-color="#58a6ff"/>
      <stop offset="100%" stop-color="#a371f7"/>
    </linearGradient>
  </defs>
  
  <!-- 背景 -->
  <rect width="32" height="32" rx="6" fill="#0d1117"/>
  
  <!-- STE 字母 - 使用路径 -->
  <g stroke="url(#grad)" stroke-width="2" stroke-linecap="round" fill="none">
    <!-- S -->
    <path d="M 10 8 C 7 8 6 10 6 12 C 6 15 8 16 11 16 L 12 16 L 11 12 L 9 12 C 8 12 7 11 7 10 C 7 8 8 7 11 7"/>
    <!-- T -->
    <path d="M 14 7 L 19 7 M 16.5 7 L 16.5 14"/>
    <!-- E -->
    <path d="M 21 7 L 24 7 M 21 10.5 L 23 10.5 M 21 14 L 24 14 M 21 7 L 21 14"/>
  </g>
  
  <!-- 光标 -->
  <rect x="6" y="18" width="2" height="5" rx="0.5" fill="#3fb950">
    <animate attributeName="opacity" values="1;0;1" dur="1s" repeatCount="indefinite"/>
  </rect>
</svg>
