<svg xmlns="http://www.w3.org/2000/svg" viewBox="0 0 120 120" width="120" height="120">
  <defs>
    <linearGradient id="grad" x1="0%" y1="0%" x2="100%" y2="0%">
      <stop offset="0%" stop-color="#3fb950"/>
      <stop offset="50%" stop-color="#58a6ff"/>
      <stop offset="100%" stop-color="#a371f7"/>
    </linearGradient>
  </defs>
  
  <!-- 背景 -->
  <rect x="4" y="4" width="112" height="112" rx="16" fill="#0d1117" stroke="#3fb950" stroke-width="2"/>
  
  <!-- S 字母 -->
  <path d="M 38 32 C 26 32 22 40 22 46 C 22 54 28 58 38 58 C 48 58 54 52 54 44 C 54 36 46 34 38 34 L 32 34 L 32 44 L 38 44 C 42 44 44 48 44 50 C 44 56 40 58 34 58 C 26 58 24 54 24 48 C 24 40 30 32 38 32 Z" 
        fill="none" stroke="url(#grad)" stroke-width="4" stroke-linecap="round" stroke-linejoin="round"/>
  
  <!-- T 字母 -->
  <path d="M 58 32 L 90 32 M 74 32 L 74 58" 
        fill="none" stroke="url(#grad)" stroke-width="4" stroke-linecap="round"/>
  
  <!-- E 字母 -->
  <path d="M 92 32 L 108 32 M 92 45 L 104 45 M 92 58 L 108 58 M 92 32 L 92 58" 
        fill="none" stroke="url(#grad)" stroke-width="4" stroke-linecap="round"/>
  
  <!-- 装饰点 -->
  <circle cx="18" cy="22" r="2" fill="#3fb950"/>
  <circle cx="102" cy="22" r="2" fill="#a371f7"/>
</svg>
